# xmcd
#
# Track frame offsets:
# 150
# 12840
# 23555
# 35870
# 46447
# 57732
# 70410
# 79897
# 89602
# 100732
# 111447
# 122957
# 132977
# 143685
# 155890
# 167097
#
# Disc length: 2394 seconds
#
# Revision: 0
# Processed by: cddbd v1.4PL0 Copyright (c) Steve Scherf et al.
# Submitted via: Axialis_AX_CDPlayer 2.6
#
DISCID=eb095810
DTITLE=Major Lance - The Very Best Of Major Lance
DYEAR=1900
DGENRE=
TTITLE0=The Monkey Time
TTITLE1=Delilah
TTITLE2=Mama Didn't Know
TTITLE3=Um Um Um Um Um Um
TTITLE4=Hey Little Girl
TTITLE5=It Ain't No Use
TTITLE6=Ain't It A Shame
TTITLE7=Girls
TTITLE8=The Matador
TTITLE9=Rhythm
TTITLE10=I'm So Lost
TTITLE11=Sometimes I Wonder
TTITLE12=Come See
TTITLE13=Too Hot To Hold
TTITLE14=It's The Beat
TTITLE15=Without A Doubt
EXTD=
EXTT0=
EXTT1=
EXTT2=
EXTT3=
EXTT4=
EXTT5=
EXTT6=
EXTT7=
EXTT8=
EXTT9=
EXTT10=
EXTT11=
EXTT12=
EXTT13=
EXTT14=
EXTT15=
PLAYORDER=
